<?xml version="1.0" encoding="UTF-8" standalone="no"?>
<svg
   xmlns:dc="http://purl.org/dc/elements/1.1/"
   xmlns:cc="http://creativecommons.org/ns#"
   xmlns:rdf="http://www.w3.org/1999/02/22-rdf-syntax-ns#"
   xmlns:svg="http://www.w3.org/2000/svg"
   xmlns="http://www.w3.org/2000/svg"
   xmlns:sodipodi="http://sodipodi.sourceforge.net/DTD/sodipodi-0.dtd"
   xmlns:inkscape="http://www.inkscape.org/namespaces/inkscape"
   width="291.98596"
   height="80.29364"
   viewBox="0 0 77.254619 21.244359"
   version="1.1"
   id="svg8"
   inkscape:version="1.0.1 (3bc2e813f5, 2020-09-07)"
   sodipodi:docname="rotateSmartphoneText.svg">
  <defs
     id="defs2">
    <rect
       x="10.96131"
       y="40.82143"
       width="84.099701"
       height="33.072914"
       id="rect18" />
  </defs>
  <sodipodi:namedview
     id="base"
     pagecolor="#ffffff"
     bordercolor="#666666"
     borderopacity="1.0"
     inkscape:pageopacity="0.0"
     inkscape:pageshadow="2"
     inkscape:zoom="1.4"
     inkscape:cx="187.70886"
     inkscape:cy="-11.94604"
     inkscape:document-units="mm"
     inkscape:current-layer="layer1"
     inkscape:document-rotation="0"
     showgrid="false"
     units="px"
     width="256px"
     inkscape:window-width="1920"
     inkscape:window-height="1030"
     inkscape:window-x="0"
     inkscape:window-y="0"
     inkscape:window-maximized="0"
     fit-margin-top="0"
     fit-margin-left="0"
     fit-margin-right="0"
     fit-margin-bottom="0" />
  <metadata
     id="metadata5">
    <rdf:RDF>
      <cc:Work
         rdf:about="">
        <dc:format>image/svg+xml</dc:format>
        <dc:type
           rdf:resource="http://purl.org/dc/dcmitype/StillImage" />
        <dc:title></dc:title>
      </cc:Work>
    </rdf:RDF>
  </metadata>
  <g
     inkscape:label="レイヤー 1"
     inkscape:groupmode="layer"
     id="layer1"
     transform="translate(-0.58131383,-1.6235389)">
    <g
       aria-label="画面を横にして
お楽しみください"
       transform="translate(-13.985119,-40.821429)"
       id="text16"
       style="font-style:normal;font-variant:normal;font-weight:normal;font-stretch:normal;font-size:9.87778px;line-height:1.25;font-family:'07LogoTypeGothic7';-inkscape-font-specification:'07LogoTypeGothic7';text-align:center;text-anchor:middle;white-space:pre;shape-inside:url(#rect18);fill:#ffffff">
      <path
         d="M 27.387847,42.985499 H 19.36709 c -0.1778,0 -0.2667,0.0889 -0.2667,0.246945 0,0.1778 0.0889,0.2667 0.2667,0.2667 h 3.526367 v 1.185334 h -1.718734 c -0.1778,0 -0.2667,0.0889 -0.2667,0.2667 v 4.010378 c 0,0.1778 0.0889,0.2667 0.2667,0.2667 h 4.40549 c 0.1778,0 0.2667,-0.0889 0.2667,-0.2667 v -4.010378 c 0,-0.1778 -0.0889,-0.2667 -0.2667,-0.2667 h -1.718734 v -1.185334 h 3.526368 c 0.1778,0 0.2667,-0.0889 0.2667,-0.256822 0,-0.167923 -0.0889,-0.256823 -0.2667,-0.256823 z m 0.0099,7.991124 v -5.719234 c 0,-0.1778 -0.0889,-0.2667 -0.2667,-0.2667 h -0.434623 c -0.1778,0 -0.2667,0.0889 -0.2667,0.2667 v 4.948768 h -6.104468 v -4.948768 c 0,-0.1778 -0.0889,-0.2667 -0.2667,-0.2667 h -0.434622 c -0.1778,0 -0.2667,0.0889 -0.2667,0.2667 v 5.719234 c 0,0.1778 0.0889,0.2667 0.2667,0.2667 h 0.434622 c 0.1778,0 0.2667,-0.0889 0.2667,-0.2667 v -0.2667 h 6.104468 v 0.2667 c 0,0.1778 0.0889,0.2667 0.2667,0.2667 h 0.434623 c 0.1778,0 0.2667,-0.0889 0.2667,-0.2667 z m -4.504268,-4.296834 h -1.0668 v -1.531056 h 1.0668 z m 2.034823,0 h -1.066801 v -1.531056 h 1.066801 z m -2.034823,2.094089 h -1.0668 v -1.659467 h 1.0668 z m 2.034823,0 h -1.066801 v -1.659467 h 1.066801 z"
         style="font-style:normal;font-variant:normal;font-weight:normal;font-stretch:normal;font-size:9.87778px;font-family:'07LogoTypeGothic7';-inkscape-font-specification:'07LogoTypeGothic7';text-align:center;text-anchor:middle;fill:#ffffff"
         id="path22" />
      <path
         d="m 37.235974,42.886722 h -7.96149 c -0.1778,0 -0.2667,0.0889 -0.2667,0.246944 0,0.1778 0.0889,0.2667 0.2667,0.2667 h 3.437467 c -0.108655,0.523523 -0.237066,1.007534 -0.365478,1.412523 h -2.8448 c -0.1778,0 -0.2667,0.0889 -0.2667,0.2667 v 5.946423 c 0,0.1778 0.0889,0.2667 0.2667,0.2667 h 0.434622 c 0.1778,0 0.2667,-0.0889 0.2667,-0.2667 V 50.85809 h 6.104468 v 0.167922 c 0,0.1778 0.0889,0.2667 0.2667,0.2667 h 0.434623 c 0.1778,0 0.2667,-0.0889 0.2667,-0.2667 v -5.946423 c 0,-0.1778 -0.0889,-0.2667 -0.2667,-0.2667 h -3.615268 c 0.128411,-0.385234 0.246945,-0.849489 0.3556,-1.412523 h 3.486856 c 0.1778,0 0.266701,-0.0889 0.266701,-0.256822 0,-0.167922 -0.0889,-0.256822 -0.266701,-0.256822 z m -5.946423,7.507112 H 30.202995 V 45.2969 h 1.086556 z m 2.973212,-3.723923 H 32.247696 V 45.2969 h 2.015067 z m 2.0447,3.723923 H 35.220907 V 45.2969 h 1.086556 z m -2.0447,-1.876778 h -2.015067 v -1.412522 h 2.015067 z m 0,1.876778 h -2.015067 v -1.442155 h 2.015067 z"
         style="font-style:normal;font-variant:normal;font-weight:normal;font-stretch:normal;font-size:9.87778px;font-family:'07LogoTypeGothic7';-inkscape-font-specification:'07LogoTypeGothic7';text-align:center;text-anchor:middle;fill:#ffffff"
         id="path24" />
      <path
         d="m 47.27178,46.462478 -0.05927,-0.237067 c -0.04939,-0.187678 -0.1778,-0.2667 -0.365478,-0.207433 -1.195211,0.3556 -1.936045,0.6223 -2.696634,0.918633 -0.424744,-1.442155 -1.8669,-1.461911 -2.538589,-0.859366 0.365478,-0.592667 0.7112,-1.155701 0.997656,-1.64959 h 3.437467 c 0.3556,0 0.3556,-0.513644 0,-0.513644 h -3.141134 c 0.207433,-0.365478 0.375356,-0.661812 0.493889,-0.859367 0.09878,-0.1778 0.04939,-0.316089 -0.138289,-0.395111 l -0.404989,-0.1778 c -0.1778,-0.07902 -0.306211,-0.02963 -0.395111,0.138289 -0.158044,0.325966 -0.424745,0.879122 -0.642056,1.293989 h -2.2225 c -0.3556,0 -0.365478,0.513644 0,0.513644 h 1.936045 c -0.898878,1.590323 -1.857023,2.834923 -2.262012,3.33869 -0.128411,0.158044 -0.09878,0.306211 0.06914,0.414867 L 39.6165,48.36889 c 0.158045,0.108655 0.306212,0.07902 0.414867,-0.07902 0.760589,-1.037167 1.728612,-2.1336 2.696634,-1.985433 0.345722,0.05927 0.5334,0.454377 0.592667,0.958144 -0.09878,0.02963 -0.849489,0.306211 -1.728612,1.2446 -0.4445,0.474134 -0.632178,1.126067 -0.345722,1.689101 0.276578,0.563033 0.938389,0.780344 1.461911,0.869244 1.037167,0.187678 2.064456,0.07902 3.190523,-0.07902 0.1778,-0.02963 0.276578,-0.138289 0.2667,-0.325967 l -0.01975,-0.316088 c -0.0099,-0.207434 -0.118533,-0.306212 -0.325967,-0.276578 -0.563033,0.07902 -0.997656,0.158044 -1.432278,0.207433 -0.503767,0.05927 -1.007533,0.07902 -1.5113,0 -0.839612,-0.128411 -1.214967,-0.6223 -0.721078,-1.373011 0.395111,-0.612423 1.126067,-0.948267 1.254478,-1.007534 0.0099,0.316089 0,0.671689 -0.02963,1.214967 -0.0099,0.207433 0.0889,0.316089 0.286455,0.316089 h 0.484011 c 0.187678,-0.01976 0.296334,-0.128411 0.286456,-0.325967 -0.01976,-0.642055 -0.05927,-1.096433 -0.128411,-1.531056 0.859367,-0.276578 1.639711,-0.493889 2.736145,-0.750711 0.187678,-0.03951 0.276578,-0.167922 0.227189,-0.3556 z"
         style="font-style:normal;font-variant:normal;font-weight:normal;font-stretch:normal;font-size:9.87778px;font-family:'07LogoTypeGothic7';-inkscape-font-specification:'07LogoTypeGothic7';text-align:center;text-anchor:middle;fill:#ffffff"
         id="path26" />
      <path
         d="m 57.001373,43.390488 h -0.928511 v -0.5334 c 0,-0.1778 -0.0889,-0.2667 -0.2667,-0.2667 h -0.434623 c -0.1778,0 -0.2667,0.0889 -0.2667,0.2667 v 0.5334 h -1.570567 v -0.5334 c 0,-0.1778 -0.0889,-0.2667 -0.2667,-0.2667 H 52.83295 c -0.1778,0 -0.2667,0.0889 -0.2667,0.2667 v 0.5334 h -0.928511 c -0.1778,0 -0.266701,0.06914 -0.266701,0.187678 0,0.1778 0.0889,0.2667 0.266701,0.2667 h 0.928511 v 1.047045 h -1.214967 c -0.1778,0 -0.2667,0.07902 -0.2667,0.217311 0,0.1778 0.0889,0.2667 0.2667,0.2667 h 2.548467 v 0.503767 h -1.995311 c -0.167923,0 -0.2667,0.09878 -0.2667,0.2667 0.01975,0.987778 0.0099,2.420056 0,3.012723 0,0.167922 0.09878,0.2667 0.2667,0.2667 h 4.93889 c 0.1778,0 0.2667,-0.0889 0.2667,-0.2667 v -3.012723 c 0,-0.1778 -0.0889,-0.2667 -0.2667,-0.2667 h -2.00519 v -0.503767 h 2.429934 c 0.1778,0 0.2667,-0.07902 0.2667,-0.217311 0,-0.1778 -0.0889,-0.2667 -0.2667,-0.2667 h -1.195211 v -1.047045 h 0.928511 c 0.1778,0 0.2667,-0.06914 0.2667,-0.187678 0,-0.1778 -0.0889,-0.2667 -0.2667,-0.2667 z m -5.82789,0.859367 h -0.671689 v -1.3335 c 0,-0.1778 -0.0889,-0.2667 -0.2667,-0.2667 h -0.306211 c -0.1778,0 -0.2667,0.0889 -0.2667,0.2667 v 1.3335 H 48.78306 c -0.1778,0 -0.2667,0.0889 -0.2667,0.246945 0,0.1778 0.0889,0.2667 0.2667,0.2667 h 0.869245 c -0.246945,1.284111 -0.661811,2.479323 -1.195212,3.526367 -0.07902,0.148167 -0.06914,0.256823 0.04939,0.375356 l 0.187678,0.187678 c 0.138289,0.138289 0.276578,0.128411 0.365478,-0.04939 0.237067,-0.464256 0.434622,-0.928511 0.602545,-1.442156 v 3.714045 c 0,0.1778 0.0889,0.2667 0.2667,0.2667 h 0.306211 c 0.1778,0 0.2667,-0.0889 0.2667,-0.2667 v -4.296834 l 0.335844,0.938389 c 0.06914,0.207433 0.227189,0.237067 0.3556,0.05927 l 0.1778,-0.246945 c 0.07902,-0.118533 0.09878,-0.227189 0.04939,-0.375355 -0.592666,-1.639712 -0.839611,-2.252134 -0.908755,-2.390423 h 0.661811 c 0.1778,0 0.2667,-0.0889 0.2667,-0.246945 0,-0.1778 -0.0889,-0.2667 -0.2667,-0.2667 z m 3.931356,0.642056 h -1.570567 v -1.047045 h 1.570567 z m -1.205089,2.518834 h -1.293989 v -1.096434 h 1.293989 z m 2.242256,0 h -1.303867 v -1.096434 h 1.303867 z M 53.89975,48.99119 h -1.293989 v -1.165578 h 1.293989 z m 2.242256,0 H 54.87765 l -0.03951,-1.165578 h 1.303867 z m -2.499078,0.938389 -0.138289,-0.207434 c -0.09878,-0.148166 -0.237067,-0.167922 -0.375356,-0.05927 -0.523522,0.414866 -1.126067,0.770467 -1.768122,1.0668 -0.158045,0.06914 -0.207434,0.197556 -0.118534,0.3556 l 0.03951,0.06914 c 0.07902,0.148167 0.197556,0.187678 0.355601,0.128412 0.790222,-0.316089 1.471789,-0.622301 1.9558,-0.987778 0.138289,-0.09878 0.148167,-0.227189 0.04939,-0.365478 z m 1.639711,-0.187678 -0.118533,0.187678 c -0.09878,0.148166 -0.05927,0.276578 0.0889,0.365478 0.543278,0.306211 1.096434,0.651933 1.610078,1.037167 0.138289,0.108655 0.276578,0.0889 0.375356,-0.05927 l 0.09878,-0.138289 c 0.09878,-0.138289 0.07902,-0.2667 -0.04939,-0.365478 -0.484012,-0.375356 -1.047045,-0.740833 -1.639712,-1.116189 -0.148166,-0.0889 -0.276578,-0.05927 -0.365478,0.0889 z"
         style="font-style:normal;font-variant:normal;font-weight:normal;font-stretch:normal;font-size:9.87778px;font-family:'07LogoTypeGothic7';-inkscape-font-specification:'07LogoTypeGothic7';text-align:center;text-anchor:middle;fill:#ffffff"
         id="path28" />
      <path
         d="m 60.4487,43.094155 -0.345722,-0.07902 c -0.187678,-0.03951 -0.306211,0.03951 -0.3556,0.227189 -0.592667,2.469445 -0.908756,5.017912 0.0099,7.260168 0.07902,0.1778 0.207433,0.237067 0.385233,0.167922 l 0.237067,-0.0889 c 0.1778,-0.06914 0.237066,-0.187678 0.187678,-0.375355 -0.108656,-0.464256 -0.07902,-0.889001 0.02963,-1.29399 0.108655,-0.414866 0.246944,-0.809978 0.474133,-1.254478 0.167923,-0.325966 -0.325966,-0.572911 -0.513644,-0.217311 -0.296334,0.563034 -0.4445,1.047045 -0.484011,1.412523 -0.187678,-1.758245 0.138288,-3.684412 0.592666,-5.403146 0.04939,-0.197556 -0.02963,-0.316089 -0.217311,-0.3556 z m 6.055079,1.056922 v -0.158044 c 0,-0.207433 -0.118533,-0.306211 -0.325966,-0.2667 -1.402645,0.276578 -2.637368,0.325967 -3.980746,0.03951 -0.325967,-0.06914 -0.4445,0.316089 -0.138289,0.4445 0.968023,0.404989 1.926167,0.5334 2.518834,0.474134 l -0.839611,0.770466 c -0.2667,0.246945 0.05927,0.543278 0.335844,0.335845 0.721078,-0.543278 1.392767,-0.9779 2.192868,-1.293989 0.158044,-0.06914 0.237066,-0.167922 0.237066,-0.345723 z m 0.286456,5.976057 v -0.217311 c 0,-0.197555 -0.118533,-0.296333 -0.316089,-0.276578 -1.1557,0.148167 -2.321278,0.158045 -3.220156,-0.138289 -0.454378,-0.158044 -0.780345,-0.424744 -0.829734,-0.839611 -0.03951,-0.375356 0.108656,-0.760589 0.434622,-1.254478 0.207434,-0.316089 -0.1778,-0.592667 -0.424744,-0.316089 -0.4445,0.493889 -0.740834,0.987778 -0.740834,1.6002 0.0099,0.750712 0.622301,1.234723 1.254478,1.481667 1.086556,0.434623 2.350912,0.365478 3.556001,0.266701 0.187678,-0.0099 0.286456,-0.118534 0.286456,-0.306212 z"
         style="font-style:normal;font-variant:normal;font-weight:normal;font-stretch:normal;font-size:9.87778px;font-family:'07LogoTypeGothic7';-inkscape-font-specification:'07LogoTypeGothic7';text-align:center;text-anchor:middle;fill:#ffffff"
         id="path30" />
      <path
         d="m 70.790718,42.748433 h -0.404989 c -0.167923,0 -0.296334,0.128411 -0.296334,0.296333 -0.0099,0.938389 -0.03951,3.87209 0.02963,5.38339 0.02963,0.6223 0.207433,1.284112 0.681566,1.817512 0.977901,1.096433 2.597857,0.681567 3.60539,0.0099 0.948267,-0.6223 1.619956,-1.540933 2.084212,-2.676878 0.128411,-0.316089 -0.306211,-0.523522 -0.484012,-0.207433 -0.424744,0.760589 -1.076678,1.590322 -1.728611,2.074334 -0.780345,0.572911 -2.074334,1.126066 -2.755901,0.2667 -0.2667,-0.325967 -0.395111,-0.819856 -0.424744,-1.333501 -0.06915,-1.540933 -0.01976,-4.375856 0,-5.314245 0.0099,-0.187678 -0.118534,-0.316089 -0.306211,-0.316089 z"
         style="font-style:normal;font-variant:normal;font-weight:normal;font-stretch:normal;font-size:9.87778px;font-family:'07LogoTypeGothic7';-inkscape-font-specification:'07LogoTypeGothic7';text-align:center;text-anchor:middle;fill:#ffffff"
         id="path32" />
      <path
         d="m 85.419688,44.062177 0.740833,-0.01975 c 0.345723,-0.0099 0.345723,-0.523522 0,-0.513645 l -7.270046,0.1778 c -0.3556,0.0099 -0.3556,0.523523 0,0.513645 l 4.425246,-0.108656 c -1.619956,0.681567 -2.647245,2.350912 -2.301523,4.128912 0.395111,2.00519 2.489201,2.637368 4.31659,2.637368 0.385233,0 0.385233,-0.582789 0,-0.582789 -1.550812,0 -3.042356,-0.651934 -3.200401,-2.390423 -0.138289,-1.452034 0.543278,-2.854679 1.738489,-3.486856 0.3556,-0.187678 0.750712,-0.276578 1.155701,-0.325967 0.138289,-0.01976 0.2667,-0.02963 0.395111,-0.02963 z"
         style="font-style:normal;font-variant:normal;font-weight:normal;font-stretch:normal;font-size:9.87778px;font-family:'07LogoTypeGothic7';-inkscape-font-specification:'07LogoTypeGothic7';text-align:center;text-anchor:middle;fill:#ffffff"
         id="path34" />
      <path
         d="m 19.120155,56.903292 c 0.316088,0 0.316088,-0.503767 0,-0.503767 h -1.778001 v -0.997656 c 0,-0.197556 -0.0889,-0.296333 -0.286456,-0.296333 h -0.306211 c -0.187678,0 -0.296333,0.108655 -0.296333,0.296333 v 0.997656 h -1.6002 c -0.365478,0 -0.365478,0.503767 0,0.503767 h 1.6002 v 2.765778 c -0.780345,0.385233 -1.896534,1.126067 -1.886656,2.094089 0,0.889001 0.8001,1.511301 1.659467,1.392767 0.730956,-0.09878 1.116189,-0.6223 1.116189,-1.3335 v -1.936045 c 1.432278,-0.572911 3.832579,-0.553155 3.625145,1.442156 -0.09878,0.424745 -0.286455,0.780345 -0.671689,0.9779 -0.750711,0.385234 -1.442156,0.0889 -1.936045,-0.464255 -0.227188,-0.256823 -0.6223,0.07902 -0.4445,0.335844 0.6223,0.879123 1.412523,1.145823 2.202745,1.017411 1.511301,-0.217311 2.281767,-1.6002 1.659467,-3.042356 -0.770467,-1.639711 -3.1115,-1.303867 -4.435123,-0.849489 v -2.4003 z m 3.230034,1.847144 0.217311,-0.2667 c 0.06914,-0.128411 0.02963,-0.276577 -0.07902,-0.365477 -0.721077,-0.533401 -1.501422,-0.730956 -2.587978,-0.572912 -0.246944,0.03951 -0.2667,0.395112 0.0099,0.424745 0.750711,0.06914 1.135945,0.167922 1.9558,0.8001 0.187678,0.148167 0.325967,0.1778 0.484012,-0.01976 z m -5.897035,1.531056 v 1.422401 c -0.03951,0.365478 -0.138289,0.671689 -0.523522,0.750711 -0.424745,0.07902 -0.790223,-0.2667 -0.790223,-0.701322 0.04939,-0.770467 0.780345,-1.165578 1.313745,-1.47179 z"
         style="font-style:normal;font-variant:normal;font-weight:normal;font-stretch:normal;font-size:9.87778px;font-family:'07LogoTypeGothic7';-inkscape-font-specification:'07LogoTypeGothic7';text-align:center;text-anchor:middle;fill:#ffffff"
         id="path36" />
      <path
         d="m 28.494149,54.838836 -0.454378,-0.03951 c -0.167923,-0.0099 -0.2667,0.05927 -0.306211,0.217311 -0.05927,0.237066 -0.128412,0.464255 -0.197556,0.671689 h -1.106311 c -0.1778,0 -0.2667,0.0889 -0.2667,0.2667 v 3.299178 c 0,0.1778 0.0889,0.2667 0.2667,0.2667 h 1.382889 v 0.780345 h -3.476979 c -0.1778,0 -0.2667,0.0889 -0.2667,0.256822 0,0.1778 0.0889,0.2667 0.2667,0.2667 h 3.309057 c -0.879123,0.829734 -2.054579,1.501423 -3.546123,2.113845 -0.158045,0.06914 -0.217312,0.187678 -0.148167,0.345722 l 0.02963,0.06914 c 0.06914,0.158044 0.187678,0.217311 0.345722,0.148167 1.511301,-0.6223 2.686757,-1.303867 3.51649,-1.975556 v 1.896533 c 0,0.1778 0.0889,0.2667 0.2667,0.2667 h 0.414867 c 0.1778,0 0.2667,-0.0889 0.2667,-0.2667 v -1.896533 c 0.829734,0.671689 2.005189,1.353256 3.51649,1.975556 0.158044,0.06914 0.276578,0.0099 0.345722,-0.148167 l 0.02963,-0.06914 c 0.06914,-0.158044 0.0099,-0.276577 -0.148166,-0.345722 -1.491545,-0.612422 -2.667001,-1.284111 -3.546123,-2.113845 h 3.309056 c 0.1778,0 0.2667,-0.0889 0.2667,-0.256822 0,-0.1778 -0.0889,-0.2667 -0.2667,-0.2667 h -3.476979 v -0.780345 h 1.38289 c 0.1778,0 0.2667,-0.0889 0.2667,-0.2667 v -3.299178 c 0,-0.1778 -0.0889,-0.2667 -0.2667,-0.2667 h -1.659467 c 0.05927,-0.167923 0.118533,-0.345723 0.167922,-0.543278 0.04939,-0.1778 -0.03951,-0.286456 -0.217311,-0.306211 z m -4.306712,0.691444 -0.108656,0.138289 c -0.108656,0.138289 -0.0889,0.276578 0.03951,0.375356 0.454378,0.3556 0.869245,0.701322 1.254478,1.076678 0.128411,0.128411 0.2667,0.118533 0.375356,-0.0099 l 0.148166,-0.1778 c 0.108656,-0.128411 0.09878,-0.256822 -0.01975,-0.375356 -0.325967,-0.296333 -0.760589,-0.661811 -1.303867,-1.076678 -0.138289,-0.09878 -0.276578,-0.0889 -0.385233,0.04939 z m 8.356601,0.148167 -0.138289,-0.148167 c -0.128411,-0.128411 -0.246944,-0.138289 -0.375355,-0.01975 -0.4445,0.414866 -0.859367,0.770467 -1.234723,1.076678 -0.138289,0.108655 -0.158044,0.246944 -0.03951,0.375355 l 0.118534,0.128411 c 0.108655,0.118534 0.237066,0.138289 0.375355,0.02963 0.523523,-0.404989 0.958145,-0.760589 1.284112,-1.0668 0.128411,-0.118534 0.128411,-0.246945 0.0099,-0.375356 z m -3.062111,1.639711 h -2.331156 v -1.135944 h 2.331156 z m 0,1.718734 h -2.331156 v -1.2446 h 2.331156 z m 1.373011,-0.760589 -0.04939,0.0889 c -0.0889,0.158045 -0.03951,0.276578 0.108656,0.3556 0.404989,0.217311 0.898878,0.523522 1.402644,0.889 0.148167,0.108656 0.286456,0.0889 0.375356,-0.06914 l 0.0889,-0.158045 c 0.07902,-0.138289 0.05927,-0.2667 -0.07902,-0.365477 -0.414867,-0.286456 -0.948267,-0.602545 -1.481667,-0.859367 -0.158045,-0.07902 -0.286456,-0.02963 -0.365478,0.118533 z m -4.978401,0.128411 -0.06914,-0.118533 c -0.0889,-0.158045 -0.217311,-0.187678 -0.365477,-0.07902 -0.424745,0.296333 -0.928512,0.602544 -1.461912,0.859366 -0.158044,0.07902 -0.197555,0.197556 -0.128411,0.355601 l 0.03951,0.0889 c 0.06914,0.158044 0.207434,0.197555 0.365478,0.128411 0.642056,-0.296334 1.106311,-0.563034 1.540934,-0.869245 0.128411,-0.09878 0.167922,-0.217311 0.07902,-0.365478 z"
         style="font-style:normal;font-variant:normal;font-weight:normal;font-stretch:normal;font-size:9.87778px;font-family:'07LogoTypeGothic7';-inkscape-font-specification:'07LogoTypeGothic7';text-align:center;text-anchor:middle;fill:#ffffff"
         id="path38" />
      <path
         d="m 36.218553,55.095658 h -0.404989 c -0.167922,0 -0.296333,0.128411 -0.296333,0.296333 -0.0099,0.938389 -0.03951,3.87209 0.02963,5.38339 0.02963,0.622301 0.207434,1.284112 0.681567,1.817512 0.9779,1.096433 2.597856,0.681567 3.60539,0.0099 0.948267,-0.6223 1.619956,-1.540934 2.084212,-2.676879 0.128411,-0.316089 -0.306212,-0.523522 -0.484012,-0.207433 -0.424744,0.760589 -1.076678,1.590323 -1.728611,2.074334 -0.780345,0.572911 -2.074334,1.126067 -2.755901,0.2667 -0.2667,-0.325967 -0.395111,-0.819856 -0.424744,-1.333501 -0.06914,-1.540933 -0.01976,-4.375856 0,-5.314245 0.0099,-0.187678 -0.118534,-0.316089 -0.306212,-0.316089 z"
         style="font-style:normal;font-variant:normal;font-weight:normal;font-stretch:normal;font-size:9.87778px;font-family:'07LogoTypeGothic7';-inkscape-font-specification:'07LogoTypeGothic7';text-align:center;text-anchor:middle;fill:#ffffff"
         id="path40" />
      <path
         d="m 52.121759,60.943304 0.118534,-0.207434 c 0.09878,-0.167922 0.05927,-0.306211 -0.108656,-0.404989 -0.464256,-0.2667 -0.849489,-0.454378 -1.096434,-0.563033 0.325967,-1.056923 0.434623,-1.817512 0.493889,-2.528712 0.0099,-0.187678 -0.07902,-0.286455 -0.276577,-0.306211 l -0.424745,-0.03951 c -0.187678,-0.01976 -0.306211,0.07902 -0.316089,0.276578 -0.04939,0.612422 -0.108656,1.2446 -0.345722,2.192867 -1.135945,-0.513645 -1.837267,-0.602545 -2.370667,-0.671689 0.335844,-0.958145 0.563033,-1.738489 0.721077,-2.80529 0.02963,-0.197555 -0.06914,-0.316089 -0.2667,-0.316089 h -3.397956 c -0.345722,0 -0.3556,0.513645 0,0.513645 h 2.637367 c -0.148166,0.968022 -0.385233,1.728611 -0.661811,2.548467 -0.750711,0.0099 -1.619956,0.246945 -2.262011,0.918634 -0.474134,0.503766 -0.740834,1.1557 -0.661812,1.797756 0.138289,1.056922 1.313745,1.086555 1.91629,0.563033 1.056922,-0.898878 1.698978,-2.538589 1.758244,-2.686756 0.592667,0.118533 1.224845,0.325967 2.390423,0.829733 -0.345722,1.11619 -0.770467,2.084212 -1.610078,3.022601 -0.237067,0.276578 0.138289,0.612422 0.414867,0.3556 0.968022,-0.889 1.619956,-1.926167 2.034822,-2.973212 0.227189,0.128412 0.553156,0.325967 0.898878,0.572912 0.167923,0.118533 0.316089,0.0889 0.414867,-0.0889 z m -6.914446,-0.948267 c 0.395111,-0.5334 1.027289,-0.780345 1.442156,-0.809978 -0.06914,0.1778 -0.582789,1.481667 -1.343378,2.202745 -0.246944,0.237066 -0.474133,0.2667 -0.513645,-0.138289 -0.04939,-0.454378 0.148167,-0.898878 0.414867,-1.254478 z"
         style="font-style:normal;font-variant:normal;font-weight:normal;font-stretch:normal;font-size:9.87778px;font-family:'07LogoTypeGothic7';-inkscape-font-specification:'07LogoTypeGothic7';text-align:center;text-anchor:middle;fill:#ffffff"
         id="path42" />
      <path
         d="m 59.826409,63.45226 0.335845,-0.316089 c 0.128411,-0.118534 0.138289,-0.286456 0.01976,-0.414867 -1.047045,-1.165578 -2.015068,-1.936045 -3.575757,-3.081867 -0.553156,-0.404989 -0.523522,-0.651934 -0.0099,-1.126067 1.096434,-0.987778 1.91629,-1.73849 3.07199,-2.686756 0.138289,-0.118534 0.158044,-0.296334 0.03951,-0.434623 l -0.246944,-0.296333 c -0.118534,-0.148167 -0.325967,-0.148167 -0.464256,-0.0099 -0.948267,0.968023 -1.501423,1.501423 -2.064456,2.054578 -0.6223,0.602545 -1.0668,1.076678 -1.373012,1.531056 -0.158044,0.246945 -0.138288,0.592667 0,0.889 0.07902,0.158045 0.237067,0.316089 0.434623,0.474134 0.187678,0.158044 0.414867,0.316089 0.612422,0.493889 0.681567,0.592667 1.145823,1.056922 1.610078,1.560689 0.395111,0.424745 0.750712,0.849489 1.175456,1.3335 0.118533,0.138289 0.306211,0.148167 0.434622,0.02963 z"
         style="font-style:normal;font-variant:normal;font-weight:normal;font-stretch:normal;font-size:9.87778px;font-family:'07LogoTypeGothic7';-inkscape-font-specification:'07LogoTypeGothic7';text-align:center;text-anchor:middle;fill:#ffffff"
         id="path44" />
      <path
         d="m 70.978405,56.695858 v -1.096433 c 0,-0.167923 -0.09878,-0.246945 -0.2667,-0.246945 h -0.05927 c -0.1778,0 -0.256822,0.07902 -0.256822,0.246945 v 1.096433 c 0,0.167923 0.07902,0.246945 0.256822,0.246945 h 0.05927 c 0.167922,0 0.2667,-0.07902 0.2667,-0.246945 z m 0.889,0 v -1.096433 c 0,-0.167923 -0.07902,-0.246945 -0.256822,-0.246945 h -0.05927 c -0.167922,0 -0.2667,0.07902 -0.2667,0.246945 v 1.096433 c 0,0.167923 0.09878,0.246945 0.2667,0.246945 h 0.05927 c 0.1778,0 0.256822,-0.07902 0.256822,-0.246945 z m -5.156201,0.434623 0.07902,-0.306212 h 2.686756 c 0.3556,0 0.3556,-0.503766 0,-0.503766 H 66.90876 l 0.207433,-0.898878 c 0.03951,-0.187678 -0.03951,-0.325967 -0.227189,-0.3556 l -0.345722,-0.05927 c -0.187678,-0.02963 -0.306211,0.04939 -0.345723,0.237067 0,0 -0.217311,1.076678 -0.217311,1.076678 h -1.827389 c -0.3556,0 -0.3556,0.503766 0,0.503766 h 1.718734 l -0.0889,0.365478 c -0.464256,1.906412 -1.076678,3.802946 -1.965679,5.600701 -0.0889,0.177801 -0.03951,0.325967 0.148167,0.395112 l 0.306211,0.118533 c 0.1778,0.06914 0.316089,0.01976 0.395111,-0.148167 0.948267,-1.945922 1.521179,-3.990623 2.044701,-6.025445 z m 2.469445,1.768122 -0.227189,0.158045 c -0.256822,0.187677 -0.0099,0.543278 0.276578,0.395111 0.158044,-0.0889 0.2667,-0.1778 0.375355,-0.256822 0.167923,-0.108656 0.335845,-0.207434 0.513645,-0.306212 0.276578,-0.148166 0.6223,-0.237066 0.997656,-0.246944 0.1778,0 0.296333,-0.06914 0.325967,-0.246945 0.03951,-0.1778 -0.0889,-0.316089 -0.276578,-0.335844 -1.264356,-0.217311 -2.18299,-0.217311 -3.299179,0.1778 -0.335844,0.108656 -0.237067,0.523522 0.148167,0.454378 0.721078,-0.138289 1.432278,-0.187678 1.758245,-0.167922 -0.2667,0.148166 -0.4445,0.2667 -0.592667,0.375355 z m 2.4003,3.990623 v -0.276578 c 0,-0.197555 -0.118533,-0.296333 -0.325966,-0.276577 -0.651934,0.05927 -1.047045,0.0889 -1.531056,0.09878 -0.750711,0.0099 -1.639712,-0.07902 -1.866901,-0.809978 -0.07902,-0.256822 -0.0099,-0.572911 0.246945,-0.968022 0.187678,-0.286456 -0.187678,-0.543278 -0.414867,-0.306211 -0.395111,0.414867 -0.701322,0.879122 -0.563033,1.412522 0.316089,1.195212 1.659467,1.432278 2.597856,1.461912 0.404989,0.01976 0.819856,0 1.560689,-0.02963 0.197556,-0.0099 0.296333,-0.108655 0.296333,-0.306211 z"
         style="font-style:normal;font-variant:normal;font-weight:normal;font-stretch:normal;font-size:9.87778px;font-family:'07LogoTypeGothic7';-inkscape-font-specification:'07LogoTypeGothic7';text-align:center;text-anchor:middle;fill:#ffffff"
         id="path46" />
      <path
         d="m 78.929996,57.120603 h 2.182989 c 0.3556,0 0.3556,-0.513645 0,-0.513645 h -2.390423 l -0.602544,-1.531056 c -0.06915,-0.167922 -0.207434,-0.227189 -0.385234,-0.158044 l -0.375355,0.138289 c -0.187678,0.06914 -0.246945,0.207433 -0.167922,0.385233 0.118533,0.286456 0.286455,0.701323 0.484011,1.165578 H 74.41585 c -0.345722,0 -0.3556,0.513645 0,0.513645 h 3.467101 c 0.454378,1.135944 0.928511,2.331156 1.096434,2.805289 -0.691445,-0.345722 -1.728612,-0.730955 -2.933701,-0.474133 -0.997656,0.217311 -1.718734,1.274233 -1.353256,2.3114 0.276578,0.780345 1.076678,1.20509 1.807634,1.38289 0.859367,0.207433 1.728611,0.197555 2.923823,0.0889 0.187678,-0.01976 0.276578,-0.118534 0.286455,-0.306212 l 0.01976,-0.286455 c 0.0099,-0.197556 -0.108656,-0.306211 -0.316089,-0.286456 -0.543278,0.04939 -0.938389,0.108656 -1.3335,0.138289 -0.474134,0.03951 -0.908756,0.01976 -1.363134,-0.0889 -0.345722,-0.07902 -0.651933,-0.217311 -0.908756,-0.474133 -0.513644,-0.523523 -0.316089,-1.412523 0.217312,-1.73849 0.928511,-0.582789 2.370667,-0.03951 3.368322,0.4445 0.148167,0.06914 0.266701,0.05927 0.404989,-0.0099 l 0.266701,-0.138289 c 0.1778,-0.0889 0.217311,-0.227189 0.128411,-0.395111 -0.345723,-0.691445 -0.829734,-1.847145 -1.264356,-2.973212 z"
         style="font-style:normal;font-variant:normal;font-weight:normal;font-stretch:normal;font-size:9.87778px;font-family:'07LogoTypeGothic7';-inkscape-font-specification:'07LogoTypeGothic7';text-align:center;text-anchor:middle;fill:#ffffff"
         id="path48" />
      <path
         d="m 84.520801,56.142703 -0.3556,0.0099 c -0.167922,-0.01976 -0.286456,0.09878 -0.296333,0.2667 -0.04939,0.632178 -0.09878,1.244601 -0.108656,1.837267 -0.0099,0.67169 0.03951,1.353256 0.187678,2.034823 0.246944,1.076678 0.869245,1.886656 1.738489,2.518834 0.09878,0.05927 0.227189,0.05927 0.335845,-0.01976 l 0.335844,-0.286455 c 0.07902,-0.06914 0.108656,-0.167922 0.0889,-0.2667 -0.04939,-0.246945 -0.09878,-0.750711 0.108656,-1.402645 0.118533,-0.3556 0.2667,-0.661811 0.424744,-0.928511 0.0889,-0.158045 0.06915,-0.325967 -0.04939,-0.404989 -0.138288,-0.05927 -0.286455,-0.02963 -0.375355,0.09878 -0.118534,0.1778 -0.217311,0.335844 -0.316089,0.513644 -0.138289,0.227189 -0.237067,0.474134 -0.3556,0.8001 -0.0889,0.286456 -0.138289,0.543278 -0.167922,0.770467 -0.908756,-0.997656 -0.977901,-1.896534 -1.007534,-2.657123 -0.02963,-0.790222 0.03951,-1.580444 0.128411,-2.538589 0.0099,-0.197556 -0.118533,-0.345722 -0.316089,-0.345722 z m 6.548968,4.810478 0.474134,-0.04939 c 0.167922,-0.0099 0.286455,-0.128412 0.276578,-0.296334 -0.04939,-0.730956 -0.335845,-2.667 -2.311401,-3.674534 -0.07902,-0.04939 -0.276578,-0.09878 -0.365478,0.02963 -0.108655,0.148167 -0.02963,0.256823 0.128411,0.424745 0.898878,0.908756 1.333501,1.768122 1.461912,3.279423 0.0099,0.1778 0.148166,0.306211 0.335844,0.286455 z"
         style="font-style:normal;font-variant:normal;font-weight:normal;font-stretch:normal;font-size:9.87778px;font-family:'07LogoTypeGothic7';-inkscape-font-specification:'07LogoTypeGothic7';text-align:center;text-anchor:middle;fill:#ffffff"
         id="path50" />
    </g>
  </g>
  <style
     type="text/css"
     id="style833">
	.st0{fill:#4B4B4B;}
</style>
  <style
     type="text/css"
     id="style851">
	.st0{fill:#4B4B4B;}
</style>
</svg>
